<svg width="33" height="31" viewBox="0 0 33 31" fill="none" xmlns="http://www.w3.org/2000/svg">
<path d="M9.75977 19.0195V20.7707C9.75977 21.2669 10.1826 21.6691 10.7043 21.6691H15.1119C15.6335 21.6691 16.0564 21.2669 16.0564 20.7707V19.0195C14.0362 19.7568 11.7841 19.7583 9.75977 19.0195Z" fill="white"/>
<path d="M12.908 17.7761C16.7272 17.7761 19.8343 14.8206 19.8343 11.1877V9.05957C19.0288 9.64444 18.0239 9.99284 16.9347 9.99284H11.9393C11.3115 9.99284 10.7307 9.79759 10.2605 9.46763C8.54094 10.0897 7.10078 9.97967 6.92618 9.99284C6.5951 9.99284 6.27731 9.93804 5.98169 9.83832V11.1877C5.98175 14.8206 9.08887 17.7761 12.908 17.7761ZM10.1669 12.9146C10.5552 12.5835 11.1523 12.6142 11.5006 12.9837C12.2552 13.7842 13.5634 13.7815 14.3155 12.9837C14.6637 12.6143 15.2609 12.5833 15.6492 12.9146C16.0376 13.2459 16.0701 13.8139 15.7218 14.1834C14.2158 15.7809 11.5952 15.7756 10.0943 14.1834C9.74599 13.8139 9.77848 13.2459 10.1669 12.9146Z" fill="white"/>
<path d="M6.92618 8.19599C7.08775 8.17449 9.02238 8.37909 10.9947 7.08471V7.29758C10.9947 7.79374 11.4176 8.19599 11.9392 8.19599H16.9346C18.5335 8.19599 19.8342 6.95869 19.8342 5.43786C19.8342 2.46554 17.292 0.0473633 14.1673 0.0473633H11.6462C8.52275 0.0473633 5.98169 2.46446 5.98169 5.43558V7.29758C5.98169 7.79374 6.40457 8.19599 6.92618 8.19599Z" fill="white"/>
<path d="M15.0302 23.4658H10.7042C9.14185 23.4658 7.87075 22.2567 7.87075 20.7706V18.252L4.97047 18.9195C2.04394 19.5932 0 22.064 0 24.9281V29.8146C0 30.3108 0.42288 30.713 0.94449 30.713H17.5397C15.094 28.9408 14.3812 25.8593 15.0302 23.4658Z" fill="white"/>
<path d="M27.3519 17.1716C27.8497 17.1464 28.2456 16.7555 28.2456 16.2757C28.2456 15.7795 27.8227 15.3773 27.3011 15.3773H26.7571C26.9651 14.8035 27.4026 14.5722 27.4954 14.5287C28.0446 14.3245 28.4379 13.3622 27.9368 12.5365C27.6295 12.0301 27.079 11.7278 26.4643 11.7278H22.4709C21.8562 11.7278 21.3058 12.0301 20.9984 12.5365C20.4973 13.3621 20.8903 14.3244 21.4398 14.5287C21.5324 14.5721 21.9702 14.8035 22.1782 15.3773H21.6341C21.1125 15.3773 20.6896 15.7795 20.6896 16.2757C20.6896 16.7553 21.0851 17.1461 21.5827 17.1716C20.0657 19.0439 16.6968 22.159 16.6968 25.0613C16.6968 28.3181 18.7974 30.7132 24.4676 30.7132C30.1395 30.7132 32.2384 28.3167 32.2384 25.0613C32.2384 22.1685 28.8716 19.0556 27.3519 17.1716Z" fill="white"/>
</svg>