<svg width="102" height="35" viewBox="0 0 102 35" fill="none" xmlns="http://www.w3.org/2000/svg">
<path d="M0 31.8905H0.960918C2.76218 31.8905 2.8791 31.1502 2.8791 28.7403V7.27023H7.82984V28.5034C7.82984 33.871 6.06511 35 1.46147 35H0V31.8905ZM2.92295 0H7.87003V4.70492H2.92295V0Z" fill="#F08A6E"/>
<path d="M10.9785 19.3673V16.0617C10.9785 9.9538 13.5105 6.7666 19.0385 6.7666C24.8442 6.7666 26.9085 10.0315 26.9085 16.9538V18.2013H15.9292V18.627C15.9292 22.9062 16.3494 25.3938 18.9983 25.3938C20.8032 25.3938 21.9541 24.4609 21.9541 21.4662V21.3108H26.6016V21.4699C26.6016 26.9152 23.0685 28.7031 18.9289 28.7031C13.3972 28.6994 10.9785 25.3938 10.9785 19.3673ZM15.9292 15.3991H22.2245V15.0881C22.2245 11.627 21.6107 9.99452 19.1152 9.99452C16.6197 9.99452 15.9292 11.7047 15.9292 15.0881V15.3991Z" fill="#F08A6E"/>
<path d="M38.0385 16.1766L35.6235 19.9117V28.1962H30.4791V0H35.6235V12.4453L43.5666 0H48.6817L41.0821 11.5494L49.4526 28.2073H44.1036L38.0385 16.1766Z" fill="#F08A6E"/>
<path d="M50.2492 22.9064V22.477C50.2492 19.2491 52.2807 17.2279 60.4978 14.8551V13.4151C60.4978 10.6573 59.6502 9.71337 57.8854 9.71337C55.6932 9.71337 55.0465 11.0756 55.0465 13.5669V13.9149H50.6329V13.5669C50.6329 9.01374 53.7422 6.68164 58.0791 6.68164C62.4927 6.68164 65.4485 7.88841 65.4485 13.8741C65.4485 16.5209 65.4084 19.5156 65.4084 21.459C65.4084 24.339 65.4084 26.3601 65.6787 28.1888H61.1482L61.0349 25.3495C60.0374 27.5706 58.3093 28.6811 55.6969 28.6811C52.3976 28.6996 50.2492 26.3675 50.2492 22.9064ZM60.6878 19.871V17.6943C56.0038 19.0566 55.3132 20.0672 55.3132 22.1364V22.5066C55.3132 24.2168 55.9672 25.468 57.5785 25.468C59.6136 25.4717 60.6878 23.8762 60.6878 19.871Z" fill="#F08A6E"/>
<path d="M74.7361 28.3404C69.8877 28.1071 67.8599 25.5603 67.8599 21.3366V21.1627H72.8362V21.3366C72.8362 24.087 73.5012 25.3012 75.5947 25.3012C77.2718 25.3012 78.0975 24.5201 78.0975 22.5804C78.0975 20.9628 77.0818 20.1225 75.434 19.4303L73.4683 18.6196C69.8877 17.1389 68.0827 15.7248 68.0827 12.197C68.0827 8.4953 70.7134 6.72586 74.7361 6.64442V4.55664H76.4789V6.69995C80.2203 7.04421 82.5659 8.78033 82.5659 12.9929V13.0781H77.6517V12.9929C77.6517 10.5313 76.7675 9.72057 75.0211 9.72057C73.5961 9.72057 72.9312 10.5609 72.9312 12.0379C72.9312 13.3372 73.4062 14.0923 74.674 14.581L76.8918 15.5101C80.3482 16.8983 83.0409 18.1717 83.0409 22.0474C83.0409 26.012 80.6003 28.0923 76.4643 28.3404V30.7687H74.7215L74.7361 28.3404Z" fill="#F08A6E"/>
<path d="M86.0066 0H90.9756V10.1095C91.8196 8.0513 93.6647 6.7779 96.1565 6.7779C99.96 6.7779 101.341 8.87678 101.341 14.0111V28.1962H96.3684V15.7102C96.3684 12.4045 96.215 10.3057 94.0666 10.3057C91.509 10.3057 90.9573 13.0672 90.9573 16.8392V28.1962H86.0066V0Z" fill="#F08A6E"/>
</svg>

