<svg width="33" height="31" viewBox="0 0 33 31" fill="none" xmlns="http://www.w3.org/2000/svg">
<path d="M16.1193 30.666C7.23076 30.666 0 23.788 0 15.3331C0 6.87812 7.23076 9.34601e-05 16.1193 9.34601e-05C25.0078 9.34601e-05 32.2386 6.87812 32.2386 15.3331C32.2386 23.788 25.0078 30.666 16.1193 30.666ZM23.1715 14.0554H17.4625V8.62488C17.4625 7.91949 16.8609 7.34722 16.1193 7.34722C15.3777 7.34722 14.7761 7.91949 14.7761 8.62488V14.0554H9.0671C8.32553 14.0554 7.72391 14.6277 7.72391 15.3331C7.72391 16.0385 8.32553 16.6107 9.0671 16.6107H14.7761V22.0412C14.7761 22.7466 15.3777 23.3189 16.1193 23.3189C16.8609 23.3189 17.4625 22.7466 17.4625 22.0412V16.6107H23.1715C23.9131 16.6107 24.5147 16.0385 24.5147 15.3331C24.5147 14.6277 23.9131 14.0554 23.1715 14.0554Z" fill="white"/>
</svg>