<svg width="316" height="117" viewBox="0 0 316 117" fill="none" xmlns="http://www.w3.org/2000/svg">
<g filter="url(#filter0_d)">
<path d="M72.3044 61.7692C65.2944 64.6432 57.7797 66.1225 50.1904 66.1225C42.6012 66.1225 35.0865 64.6432 28.0765 61.7692C26.4056 61.0754 25.0718 61.9218 25.0718 63.7189V69.0197C25.1116 69.98 25.4114 70.9121 25.9399 71.7187C26.4684 72.5254 27.2062 73.1772 28.0765 73.606C35.0865 76.4799 42.6012 77.9593 50.1904 77.9593C57.7797 77.9593 65.2944 76.4799 72.3044 73.606C73.1738 73.1768 73.9106 72.5248 74.4379 71.7181C74.9653 70.9113 75.2637 69.9794 75.3021 69.0197V63.7189C75.3091 61.9218 73.9682 61.0962 72.3044 61.7692Z" fill="white"/>
<path d="M50.2045 70.1511C64.081 70.1511 75.3301 66.9111 75.3301 62.9144C75.3301 58.9177 64.081 55.6777 50.2045 55.6777C36.3279 55.6777 25.0788 58.9177 25.0788 62.9144C25.0788 66.9111 36.3279 70.1511 50.2045 70.1511Z" fill="url(#paint0_radial)"/>
<path d="M50.2044 68.8324C61.5568 68.8324 70.7598 66.1826 70.7598 62.914C70.7598 59.6454 61.5568 56.9956 50.2044 56.9956C38.8519 56.9956 29.6489 59.6454 29.6489 62.914C29.6489 66.1826 38.8519 68.8324 50.2044 68.8324Z" fill="#F08A6E"/>
<path d="M53.1883 64.5306C54.0237 64.3988 54.81 64.26 55.5542 64.1143C55.8074 63.7831 55.9782 63.3975 56.0526 62.9888C56.127 62.5802 56.1029 62.16 55.9824 61.7622L55.6244 61.6929C54.81 61.5333 53.9465 61.3806 53.0269 61.2349C52.3248 61.1239 51.6228 61.0268 50.9208 60.9435L49.6009 60.7839C48.6532 60.9019 47.6914 61.0337 46.7367 61.1864C45.7819 61.339 45.0658 61.4639 44.3076 61.6165C44.0722 61.9654 43.9164 62.3608 43.8513 62.7752C43.7823 63.1652 43.8137 63.566 43.9426 63.9409C45.9504 64.3502 48.1548 64.6902 50.324 64.933C51.2718 64.8151 52.2336 64.6833 53.1883 64.5306Z" fill="white"/>
<path d="M44.3286 61.6167C44.6669 61.1522 45.088 60.7525 45.5712 60.4372C41.8294 60.236 38.8177 60.3956 37.7787 60.9506C36.852 61.4432 37.6734 62.1371 39.7092 62.8378C41.2298 62.3235 42.7852 61.9154 44.3637 61.6167" fill="white"/>
<path d="M60.3139 62.8792C59.1644 63.2715 57.9922 63.5959 56.8037 63.8505C56.62 64.4268 56.2772 64.9411 55.8138 65.3353C58.8958 65.4325 61.3037 65.2521 62.2094 64.7664C63.115 64.2807 62.3217 63.5799 60.2858 62.8792" fill="white"/>
<path d="M54.908 60.3537C54.7957 60.2566 54.6693 60.1664 54.5359 60.0693C53.3573 59.3544 51.994 58.9929 50.6116 59.0285C49.0204 58.9922 47.4473 59.3677 46.0484 60.1178C47.8667 60.2774 49.5094 60.4509 50.9626 60.6382C52.3667 60.4995 53.6725 60.4023 54.915 60.3537" fill="white"/>
<path d="M45.0096 65.363C46.267 66.2576 47.7852 66.7229 49.3342 66.6882C50.8795 66.7234 52.4086 66.37 53.778 65.6613C52.6969 65.5711 50.9067 65.3838 48.8638 65.0854C47.5159 65.2242 46.2031 65.3144 44.9816 65.363" fill="white"/>
<path d="M39.5755 62.8726C37.6519 63.5664 36.9218 64.2602 37.8836 64.7875C38.8454 65.3148 41.6184 65.4814 45.0092 65.3634C44.6059 65.0597 44.2791 64.6679 44.0545 64.2186C42.5234 63.9048 41.0242 63.4542 39.5755 62.8726Z" fill="white"/>
<path d="M60.3138 62.8584C62.2655 62.1645 63.0096 61.4707 62.0408 60.9295C61.072 60.3883 58.3552 60.2357 55.0205 60.3467C55.574 60.6672 56.0525 61.0999 56.4246 61.6164C57.7569 61.9113 59.0588 62.327 60.3138 62.8584Z" fill="white"/>
<path d="M56.6284 61.9011C56.7863 62.1986 56.8831 62.524 56.9133 62.8586C56.9434 63.1932 56.9062 63.5304 56.8039 63.8508C57.9924 63.5961 59.1645 63.2718 60.314 62.8794L59.942 62.7754C59.1627 62.5256 58.0535 62.2203 56.6284 61.9081" fill="#F08A6E"/>
<path d="M44.0547 64.2185C44.2793 64.6678 44.6061 65.0596 45.0095 65.3633C46.231 65.3148 47.5438 65.2246 48.8917 65.0858C47.3332 64.8638 45.6483 64.5724 44.0547 64.2185Z" fill="#F08A6E"/>
<path d="M53.1881 64.5305C52.2333 64.6832 51.2715 64.815 50.3238 64.9329L51.3628 65.0439C52.3597 65.1411 53.3285 65.2174 54.2552 65.266H54.4166L54.557 65.1619C54.9421 64.8603 55.2783 64.5023 55.5539 64.1003C54.8098 64.246 54.0235 64.3848 53.1881 64.5166" fill="#F08A6E"/>
<path d="M46.7577 61.1862C47.7125 61.0336 48.6742 60.9018 49.622 60.7838C48.3583 60.652 47.0104 60.5271 45.5572 60.4438C45.0866 60.7624 44.6776 61.1619 44.3497 61.6234C45.1079 61.4707 45.9223 61.325 46.7788 61.1932" fill="#F08A6E"/>
<path d="M41.8294 63.469L42.0471 63.5245C42.6438 63.6702 43.2686 63.802 43.9215 63.9338C43.8008 63.5594 43.7767 63.1611 43.8513 62.7752C43.9228 62.3591 44.0857 61.9635 44.3287 61.6165C42.7501 61.9152 41.1948 62.3232 39.6742 62.8376C40.285 63.0527 41.0081 63.2608 41.8294 63.469Z" fill="#F08A6E"/>
<path d="M55.8628 61.4778C55.631 61.039 55.3052 60.6554 54.9081 60.3538C53.6655 60.4023 52.3316 60.4995 50.9556 60.6382C52.3597 60.8186 53.5672 61.0129 54.5921 61.2141C55.0485 61.3043 55.4697 61.3876 55.8628 61.4778Z" fill="#F08A6E"/>
<path d="M68.2186 51.3898C61.2086 54.2637 53.6939 55.7431 46.1046 55.7431C38.5154 55.7431 31.0007 54.2637 23.9907 51.3898C22.3409 50.7168 21 51.5424 21 53.3394V58.6126C21.0398 59.5728 21.3396 60.5049 21.8681 61.3116C22.3966 62.1182 23.1345 62.77 24.0047 63.1988C31.0147 66.0728 38.5294 67.5521 46.1187 67.5521C53.7079 67.5521 61.2226 66.0728 68.2326 63.1988C69.1002 62.7681 69.8352 62.1156 70.3612 61.309C70.8871 60.5025 71.1848 59.5714 71.2233 58.6126V53.3394C71.2233 51.5424 69.8824 50.7168 68.2186 51.3898Z" fill="white"/>
<path d="M46.1257 59.7714C60.0022 59.7714 71.2514 56.5315 71.2514 52.5348C71.2514 48.5381 60.0022 45.2981 46.1257 45.2981C32.2492 45.2981 21 48.5381 21 52.5348C21 56.5315 32.2492 59.7714 46.1257 59.7714Z" fill="url(#paint1_radial)"/>
<path d="M46.1258 58.4527C57.4783 58.4527 66.6813 55.803 66.6813 52.5344C66.6813 49.2657 57.4783 46.616 46.1258 46.616C34.7733 46.616 25.5703 49.2657 25.5703 52.5344C25.5703 55.803 34.7733 58.4527 46.1258 58.4527Z" fill="#F08A6E"/>
<path d="M49.0814 54.1507C49.9098 54.0189 50.7031 53.8801 51.4472 53.7344C51.6992 53.4039 51.8687 53.0192 51.9419 52.6117C52.0151 52.2042 51.9899 51.7854 51.8685 51.3893L51.5104 51.313C50.7031 51.1534 49.8326 51.0007 48.9129 50.855L46.8068 50.5636L45.5712 50.4041C44.6235 50.522 43.6617 50.6538 42.7069 50.8065C41.7522 50.9591 41.0431 51.084 40.2779 51.2367C40.0274 51.5732 39.8527 51.9588 39.7654 52.3676C39.6964 52.7599 39.7278 53.163 39.8567 53.5402C41.8645 53.9426 44.0689 54.2826 46.2382 54.5254C47.1859 54.4144 48.1477 54.2756 49.1095 54.123" fill="white"/>
<path d="M40.2427 51.2369C40.5708 50.7776 40.9798 50.3804 41.4502 50.0643C37.7084 49.8562 34.6967 50.0157 33.6577 50.5708C32.738 51.0634 33.5524 51.7573 35.5883 52.458C37.1089 51.9437 38.6642 51.5356 40.2427 51.2369Z" fill="white"/>
<path d="M56.1929 52.4995C55.0442 52.8945 53.8719 53.2189 52.6827 53.4709C52.4963 54.0477 52.1511 54.5618 51.6858 54.9557C54.7677 55.0528 57.1757 54.8724 58.0883 54.3867C59.001 53.901 58.1937 53.2003 56.1578 52.4995" fill="white"/>
<path d="M50.8292 49.9741C50.7099 49.877 50.5905 49.7868 50.4501 49.6896C49.2722 48.979 47.9125 48.6178 46.5328 48.6489C44.9417 48.6125 43.3685 48.9881 41.9696 49.7382C43.7808 49.8978 45.4236 50.0712 46.8838 50.2586C48.2879 50.1198 49.5937 50.0227 50.8433 49.9741" fill="white"/>
<path d="M40.9237 54.9904C42.1833 55.8799 43.7005 56.3424 45.2482 56.3087C46.7947 56.3415 48.3249 55.9908 49.6991 55.2888C48.6179 55.1916 46.8207 55.0043 44.7849 54.7129C43.4299 54.8447 42.1171 54.9349 40.8956 54.9904" fill="white"/>
<path d="M35.4964 52.4927C33.5658 53.1865 32.8357 53.8803 33.7975 54.4076C34.7593 54.935 37.5323 55.1015 40.9231 54.9905C40.5159 54.6842 40.1845 54.2903 39.9543 53.8387C38.4252 53.526 36.9283 53.0754 35.4823 52.4927" fill="white"/>
<path d="M56.2489 52.4787C58.2075 51.7849 58.9447 51.0911 57.9759 50.5499C57.0071 50.0087 54.2972 49.8561 50.9556 49.9671C51.5091 50.2876 51.9876 50.7203 52.3596 51.2368C53.6875 51.5312 54.9848 51.947 56.2348 52.4787" fill="white"/>
<path d="M52.5424 51.5213C52.7018 51.8183 52.7995 52.1438 52.8296 52.4786C52.8598 52.8134 52.8218 53.1509 52.7179 53.471C53.9071 53.219 55.0794 52.8946 56.2281 52.4996L55.856 52.3678C55.0768 52.118 53.9675 51.8127 52.5424 51.5005" fill="#F08A6E"/>
<path d="M39.955 53.8386C40.1812 54.2888 40.5076 54.6826 40.9097 54.9904C42.1313 54.9349 43.4441 54.8447 44.799 54.7129C43.2405 54.4839 41.5486 54.1925 39.955 53.8386Z" fill="#F08A6E"/>
<path d="M49.0813 54.1509C48.1195 54.3035 47.1577 54.4423 46.21 54.5533L47.256 54.6643C48.2459 54.7614 49.2217 54.8378 50.1414 54.8863H50.3028L50.4432 54.7822C50.838 54.4937 51.186 54.1474 51.4752 53.7554C50.7311 53.9011 49.9378 54.0398 49.1094 54.1717" fill="#F08A6E"/>
<path d="M42.6719 50.8066C43.6266 50.654 44.5884 50.5221 45.5361 50.4042C44.2725 50.2724 42.9246 50.1475 41.4714 50.0642C41.0009 50.3803 40.5919 50.7775 40.2639 51.2368C41.0291 51.0841 41.8364 50.9384 42.6929 50.8066" fill="#F08A6E"/>
<path d="M37.7435 53.0618L37.9681 53.1173C38.5578 53.263 39.1896 53.4017 39.8355 53.5336C39.7148 53.1568 39.6907 52.7562 39.7653 52.3679C39.8381 51.9522 40.001 51.557 40.2427 51.2092C38.6642 51.5079 37.1088 51.916 35.5882 52.4304C36.199 52.6455 36.9291 52.8536 37.7435 53.0618Z" fill="#F08A6E"/>
<path d="M51.7769 51.0981C51.5436 50.6623 51.2208 50.2794 50.8291 49.9741C49.5795 50.0227 48.2456 50.1198 46.8697 50.2586C48.2737 50.439 49.4812 50.6333 50.5062 50.8345L51.7769 51.0981Z" fill="#F08A6E"/>
<path d="M76.3268 40.7048C69.3168 43.5787 61.8021 45.058 54.2129 45.058C46.6236 45.058 39.1089 43.5787 32.0989 40.7048C30.4351 40.0109 29.0942 40.8574 29.0942 42.6544V47.9553C29.1347 48.9153 29.4348 49.8471 29.9633 50.6537C30.4917 51.4602 31.2291 52.1121 32.0989 52.5415C39.1089 55.4155 46.6236 56.8948 54.2129 56.8948C61.8021 56.8948 69.3168 55.4155 76.3268 52.5415C77.1966 52.1121 77.9341 51.4602 78.4625 50.6537C78.9909 49.8471 79.291 48.9153 79.3315 47.9553V42.6544C79.3315 40.8505 77.9907 40.0248 76.3268 40.7048Z" fill="white"/>
<path d="M54.2343 49.0793C68.1108 49.0793 79.36 45.8393 79.36 41.8426C79.36 37.8459 68.1108 34.606 54.2343 34.606C40.3577 34.606 29.1086 37.8459 29.1086 41.8426C29.1086 45.8393 40.3577 49.0793 54.2343 49.0793Z" fill="url(#paint2_radial)"/>
<path d="M54.2341 47.7608C65.5865 47.7608 74.7895 45.1111 74.7895 41.8425C74.7895 38.5738 65.5865 35.9241 54.2341 35.9241C42.8816 35.9241 33.6786 38.5738 33.6786 41.8425C33.6786 45.1111 42.8816 47.7608 54.2341 47.7608Z" fill="#F08A6E"/>
<path d="M57.2178 43.4662C58.0532 43.3343 58.8394 43.1886 59.5836 43.0429C59.8373 42.7132 60.0084 42.3288 60.0828 41.9212C60.1572 41.5136 60.1329 41.0943 60.0118 40.6978L59.6468 40.6284C58.8418 40.4619 57.9783 40.3092 57.0563 40.1705C56.3543 40.0595 55.6522 39.9623 54.9502 39.8721L53.6374 39.7195C52.7014 39.8305 51.7466 39.9623 50.7731 40.115C49.9166 40.2537 49.1023 40.3994 48.3441 40.5521C48.1021 40.8979 47.937 41.2904 47.8597 41.7038C47.7961 42.0968 47.8298 42.4991 47.958 42.8764C49.9588 43.2788 52.1702 43.6188 54.3324 43.8617C55.2802 43.7506 56.2419 43.6188 57.2037 43.4662" fill="white"/>
<path d="M48.3789 40.5731C48.7028 40.1084 49.1124 39.7082 49.5863 39.3936C45.8445 39.1854 42.8328 39.3519 41.7868 39.907C40.8671 40.3927 41.6815 41.0935 43.7174 41.7942C45.2391 41.2758 46.7971 40.8677 48.3789 40.5731Z" fill="white"/>
<path d="M64.3009 41.8079C63.1536 42.2071 61.981 42.5316 60.7908 42.7792C60.6073 43.3594 60.2617 43.8764 59.7939 44.271C62.8828 44.3681 65.2908 44.1808 66.1964 43.702C67.102 43.2233 66.3017 42.5156 64.2658 41.8079" fill="white"/>
<path d="M58.9095 39.2824C58.7971 39.1922 58.6708 39.0951 58.5374 39.0049C57.3603 38.2863 55.996 37.9244 54.613 37.9641C53.0215 37.9245 51.4476 38.3002 50.0498 39.0534C51.8658 39.2153 53.5038 39.3888 54.9641 39.5738C56.3681 39.4351 57.6739 39.3379 58.9165 39.2824" fill="white"/>
<path d="M49.0319 44.2988C50.2907 45.1952 51.8124 45.6583 53.3634 45.6171C54.9082 45.6544 56.4372 45.3034 57.8072 44.5971C56.7261 44.5069 54.9359 44.3126 52.893 44.0212C51.5381 44.1531 50.2253 44.2502 49.0038 44.2988" fill="white"/>
<path d="M43.6045 41.8079C41.6739 42.5017 40.9508 43.1955 41.9126 43.7159C42.8744 44.2363 45.6474 44.4097 49.0312 44.2987C48.633 43.9888 48.3093 43.5954 48.0835 43.147C46.5524 42.8362 45.0532 42.388 43.6045 41.8079Z" fill="white"/>
<path d="M64.3573 41.7871C66.316 41.0932 67.0601 40.3994 66.0913 39.8652C65.1225 39.3309 62.4056 39.1713 59.071 39.2823C59.628 39.598 60.1075 40.0316 60.475 40.552C61.8036 40.8408 63.1013 41.2544 64.3503 41.7871" fill="white"/>
<path d="M60.6506 40.8364C60.8098 41.1322 60.9074 41.4565 60.9375 41.7902C60.9677 42.1239 60.9298 42.4602 60.8261 42.7792C62.0164 42.5315 63.1889 42.207 64.3362 41.8078L64.0063 41.6968C63.22 41.447 62.1108 41.1417 60.6857 40.8364" fill="#F08A6E"/>
<path d="M48.0841 43.147C48.3099 43.5955 48.6336 43.9888 49.0318 44.2987C50.2534 44.2502 51.5662 44.153 52.9211 44.0212C51.3626 43.7922 49.6777 43.5008 48.0841 43.147Z" fill="#F08A6E"/>
<path d="M57.2174 43.4662C56.2557 43.6188 55.2939 43.7507 54.3461 43.8617L55.3992 43.9727C56.3961 44.0768 57.3649 44.1462 58.2845 44.2017H58.446L58.5864 44.0976C58.9824 43.8019 59.3283 43.4459 59.6114 43.043C58.8672 43.1887 58.0809 43.3344 57.2455 43.4662" fill="#F08A6E"/>
<path d="M50.7867 40.115C51.7228 39.9623 52.6775 39.8305 53.651 39.7195C52.3803 39.5807 51.0395 39.4628 49.5862 39.3726C49.1104 39.6934 48.7006 40.1007 48.3788 40.5729C49.1369 40.4202 49.9513 40.2745 50.8078 40.1358" fill="#F08A6E"/>
<path d="M45.8588 42.4047L46.0764 42.4602C46.6755 42.6082 47.3003 42.747 47.9508 42.8765C47.8227 42.4992 47.789 42.0969 47.8525 41.7039C47.9454 41.2945 48.1248 40.9091 48.379 40.573C46.7973 40.8676 45.2393 41.2758 43.7176 41.7941C44.3353 42.0023 45.0584 42.2174 45.8798 42.4255" fill="#F08A6E"/>
<path d="M59.8854 40.4134C59.6466 39.9712 59.3137 39.5854 58.9096 39.2825C57.667 39.338 56.3331 39.4351 54.9572 39.5739C56.3612 39.7543 57.5687 39.9416 58.5937 40.1428L59.8573 40.4134" fill="#F08A6E"/>
<path d="M70.2475 30.0126C63.2374 32.8866 55.7227 34.3659 48.1335 34.3659C40.5443 34.3659 33.0295 32.8866 26.0195 30.0126C24.3557 29.3188 23.0148 30.1653 23.0148 31.9623V37.2632C23.0546 38.2234 23.3544 39.1555 23.8829 39.9622C24.4114 40.7688 25.1493 41.4206 26.0195 41.8494C33.0295 44.7234 40.5443 46.2027 48.1335 46.2027C55.7227 46.2027 63.2374 44.7234 70.2475 41.8494C71.1177 41.4206 71.8556 40.7688 72.3841 39.9622C72.9126 39.1555 73.2124 38.2234 73.2522 37.2632V31.9623C73.2522 30.1653 71.9113 29.3396 70.2475 30.0126Z" fill="white"/>
<path d="M48.1475 38.3942C62.0241 38.3942 73.2732 35.1543 73.2732 31.1576C73.2732 27.1609 62.0241 23.9209 48.1475 23.9209C34.271 23.9209 23.0219 27.1609 23.0219 31.1576C23.0219 35.1543 34.271 38.3942 48.1475 38.3942Z" fill="url(#paint3_radial)"/>
<path d="M48.1477 37.0758C59.5002 37.0758 68.7032 34.426 68.7032 31.1574C68.7032 27.8888 59.5002 25.239 48.1477 25.239C36.7952 25.239 27.5922 27.8888 27.5922 31.1574C27.5922 34.426 36.7952 37.0758 48.1477 37.0758Z" fill="#F08A6E"/>
<path d="M51.1307 32.7744C51.9661 32.6426 52.7594 32.5038 53.4966 32.3581C53.7498 32.0268 53.9206 31.6412 53.995 31.2326C54.0694 30.824 54.0453 30.4037 53.9248 30.006L53.5668 29.9366C52.7594 29.777 51.8889 29.6244 50.9693 29.4717C50.2672 29.3607 49.5652 29.2636 48.8632 29.1803L47.5433 29.0208C46.5956 29.1387 45.6338 29.2705 44.6791 29.4232C43.7243 29.5758 43.0152 29.7007 42.25 29.8534C42.0071 30.2004 41.8441 30.596 41.7726 31.012C41.7036 31.402 41.735 31.8029 41.8639 32.1777C43.8717 32.587 46.0761 32.927 48.2454 33.1699C49.1931 33.0519 50.1549 32.9201 51.1097 32.7674" fill="white"/>
<path d="M42.2713 29.8604C42.595 29.4001 42.9992 29.0007 43.4648 28.6808C39.723 28.4796 36.7113 28.6392 35.6722 29.1943C34.7526 29.6869 35.5669 30.3807 37.6028 31.0815C39.128 30.5665 40.6881 30.1584 42.2713 29.8604Z" fill="white"/>
<path d="M58.2072 31.123C57.0575 31.5148 55.8854 31.8392 54.697 32.0944C54.508 32.67 54.1633 33.1834 53.7002 33.5792C56.7821 33.6763 59.19 33.496 60.1027 33.0103C61.0153 32.5246 60.208 31.8238 58.1721 31.123" fill="white"/>
<path d="M52.8579 28.5973C52.7386 28.5002 52.6122 28.41 52.4788 28.3129C51.3025 27.5985 49.9417 27.237 48.5615 27.2721C46.9682 27.2368 45.3931 27.6122 43.9913 28.3614C45.8095 28.521 47.4523 28.6945 48.9055 28.8818C50.3095 28.743 51.6153 28.6459 52.8649 28.5973" fill="white"/>
<path d="M42.9524 33.6346C44.212 34.524 45.7292 34.9865 47.2769 34.9528C48.8223 34.988 50.3514 34.6347 51.7208 33.926C50.6396 33.8358 48.8495 33.6484 46.8065 33.3501C45.4586 33.4889 44.1458 33.5791 42.9243 33.6346" fill="white"/>
<path d="M37.5249 31.1162C35.5944 31.81 34.8642 32.5039 35.826 33.0312C36.7878 33.5585 39.5608 33.725 42.9516 33.614C42.5495 33.3062 42.2231 32.9125 41.9969 32.4622C40.4678 32.1495 38.9709 31.6989 37.5249 31.1162Z" fill="white"/>
<path d="M58.2777 31.102C60.2364 30.4082 60.9735 29.7144 60.0047 29.1732C59.0359 28.632 56.3261 28.4794 52.9844 28.5904C53.5379 28.9109 54.0164 29.3436 54.3885 29.8601C55.7163 30.1545 57.0137 30.5703 58.2637 31.102" fill="white"/>
<path d="M54.5709 30.1653C54.7285 30.4629 54.8251 30.7883 54.8552 31.1228C54.8853 31.4574 54.8483 31.7945 54.7464 32.115C55.9348 31.8597 57.1069 31.5354 58.2566 31.1436L57.9196 31.0326C57.1403 30.7828 56.0311 30.4775 54.606 30.1653" fill="#F08A6E"/>
<path d="M41.9973 32.4622C42.2208 32.9199 42.5474 33.321 42.952 33.6347C44.1735 33.5792 45.4863 33.489 46.8342 33.3503C45.2828 33.1282 43.5909 32.8368 41.9973 32.483" fill="#F08A6E"/>
<path d="M51.1309 32.7744C50.1762 32.9271 49.2144 33.0589 48.2666 33.1768L49.3127 33.2879C50.3025 33.385 51.2713 33.4613 52.198 33.5099H52.3595L52.4999 33.4058C52.8849 33.1042 53.2211 32.7462 53.4968 32.3442C52.7947 32.4899 51.9663 32.6287 51.1309 32.7605" fill="#F08A6E"/>
<path d="M44.7002 29.4299C45.655 29.2773 46.6167 29.1454 47.5645 29.0275C46.2727 28.8956 44.9529 28.7777 43.4997 28.6875C43.0291 29.0061 42.6201 29.4056 42.2922 29.867C43.0574 29.7144 43.8648 29.5687 44.7213 29.4368" fill="#F08A6E"/>
<path d="M39.7721 31.7125L39.9897 31.768C40.5794 31.9137 41.2042 32.0455 41.8571 32.1774C41.7282 31.8025 41.6968 31.4017 41.7658 31.0117C41.8373 30.5956 42.0003 30.2001 42.2432 29.853C40.6647 30.1517 39.1094 30.5598 37.5887 31.0742C38.1995 31.2893 38.9226 31.4974 39.744 31.7056" fill="#F08A6E"/>
<path d="M53.8056 29.7214C53.5741 29.2844 53.251 28.9012 52.8578 28.5974C51.6082 28.646 50.2744 28.7431 48.8984 28.8819C50.3024 29.0623 51.5099 29.2566 52.5349 29.4578L53.8056 29.7214Z" fill="#F08A6E"/>
<path d="M92.7694 81.3272H94.6111C98.0634 81.3272 98.2874 79.9267 98.2874 75.368V34.7531H107.776V74.9199C107.776 85.0736 104.394 87.2094 95.5704 87.2094H92.7694V81.3272ZM98.3715 21H107.853V29.9003H98.3715V21Z" fill="white"/>
<path d="M113.812 57.6376V51.3843C113.812 39.83 118.665 33.8008 129.26 33.8008C140.387 33.8008 144.343 39.9771 144.343 53.0719V55.4317H123.301V56.237C123.301 64.332 124.106 69.0378 129.183 69.0378C132.642 69.0378 134.848 67.2731 134.848 61.608V61.3139H143.755V61.615C143.755 71.9158 136.984 75.2981 129.05 75.2981C118.448 75.2911 113.812 69.0378 113.812 57.6376ZM123.301 50.1308H135.366V49.5426C135.366 42.9952 134.19 39.907 129.407 39.907C124.624 39.907 123.301 43.1422 123.301 49.5426V50.1308Z" fill="white"/>
<path d="M165.673 51.6013L161.045 58.6669V74.3386H151.185V21H161.045V44.5427L176.268 21H186.072L171.506 42.848L187.549 74.3596H177.298L165.673 51.6013Z" fill="white"/>
<path d="M189.076 64.332V63.5197C189.076 57.4134 192.969 53.59 208.718 49.1013V46.3773C208.718 41.1604 207.093 39.3748 203.711 39.3748C199.51 39.3748 198.27 41.9517 198.27 46.6644V47.3227H189.811V46.6644C189.811 38.0513 195.77 33.6396 204.082 33.6396C212.542 33.6396 218.207 35.9225 218.207 47.2457C218.207 52.2525 218.13 57.9176 218.13 61.5939C218.13 67.042 218.13 70.8654 218.648 74.3246H209.965L209.747 68.9537C207.836 73.1552 204.524 75.256 199.517 75.256C193.193 75.291 189.076 70.8794 189.076 64.332ZM209.082 58.5898V54.4723C200.105 57.0493 198.781 58.961 198.781 62.8754V63.5757C198.781 66.8109 200.035 69.1777 203.123 69.1777C207.023 69.1847 209.082 66.1666 209.082 58.5898Z" fill="white"/>
<path d="M236.007 74.6117C226.715 74.1705 222.828 69.3527 222.828 61.3628V61.0337H232.366V61.3628C232.366 66.5657 233.64 68.8626 237.653 68.8626C240.867 68.8626 242.45 67.385 242.45 63.7157C242.45 60.6555 240.503 59.066 237.345 57.7565L233.577 56.2229C226.715 53.4219 223.255 50.7469 223.255 44.0734C223.255 37.0709 228.297 33.7236 236.007 33.5696V29.6201H239.347V33.6746C246.518 34.3259 251.014 37.6101 251.014 45.579V45.7401H241.595V45.579C241.595 40.9223 239.901 39.3887 236.553 39.3887C233.822 39.3887 232.548 40.9783 232.548 43.7723C232.548 46.2302 233.458 47.6588 235.888 48.5831L240.139 50.3407C246.763 52.9667 251.924 55.3756 251.924 62.7073C251.924 70.2071 247.246 74.1425 239.319 74.6117V79.2054H235.979L236.007 74.6117Z" fill="white"/>
<path d="M257.61 21H267.134V40.124C268.751 36.2306 272.288 33.8217 277.063 33.8217C284.353 33.8217 287 37.7922 287 47.5048V74.3386H277.47V50.7189C277.47 44.4656 277.175 40.4952 273.058 40.4952C268.156 40.4952 267.099 45.7191 267.099 52.8547V74.3386H257.61V21Z" fill="white"/>
</g>
<defs>
<filter id="filter0_d" x="0" y="0" width="316" height="116.209" filterUnits="userSpaceOnUse" color-interpolation-filters="sRGB">
<feFlood flood-opacity="0" result="BackgroundImageFix"/>
<feColorMatrix in="SourceAlpha" type="matrix" values="0 0 0 0 0 0 0 0 0 0 0 0 0 0 0 0 0 0 127 0"/>
<feOffset dx="4" dy="4"/>
<feGaussianBlur stdDeviation="12.5"/>
<feColorMatrix type="matrix" values="0 0 0 0 0 0 0 0 0 0 0 0 0 0 0 0 0 0 0.1 0"/>
<feBlend mode="normal" in2="BackgroundImageFix" result="effect1_dropShadow"/>
<feBlend mode="normal" in="SourceGraphic" in2="effect1_dropShadow" result="shape"/>
</filter>
<radialGradient id="paint0_radial" cx="0" cy="0" r="1" gradientUnits="userSpaceOnUse" gradientTransform="translate(2403.98 429.524) scale(3627.14 1044.69)">
<stop stop-color="white"/>
<stop offset="1" stop-color="#FFE1BE"/>
</radialGradient>
<radialGradient id="paint1_radial" cx="0" cy="0" r="1" gradientUnits="userSpaceOnUse" gradientTransform="translate(2399.9 419.144) scale(3627.14 1044.69)">
<stop stop-color="white"/>
<stop offset="1" stop-color="#FFE1BE"/>
</radialGradient>
<radialGradient id="paint2_radial" cx="0" cy="0" r="1" gradientUnits="userSpaceOnUse" gradientTransform="translate(2408.01 408.452) scale(3627.14 1044.69)">
<stop stop-color="white"/>
<stop offset="1" stop-color="#FFE1BE"/>
</radialGradient>
<radialGradient id="paint3_radial" cx="0" cy="0" r="1" gradientUnits="userSpaceOnUse" gradientTransform="translate(2401.92 397.767) scale(3627.14 1044.69)">
<stop stop-color="white"/>
<stop offset="1" stop-color="#FFE1BE"/>
</radialGradient>
</defs>
</svg>
