<svg width="36" height="36" viewBox="0 0 36 36" fill="none" xmlns="http://www.w3.org/2000/svg">
<path d="M18 36C27.9411 36 36 27.9411 36 18C36 8.05887 27.9411 0 18 0C8.05888 0 0 8.05887 0 18C0 27.9411 8.05888 36 18 36Z" fill="white"/>
<path d="M18 32.6668C26.1002 32.6668 32.6667 26.1003 32.6667 18.0002C32.6667 9.89998 26.1002 3.3335 18 3.3335C9.89987 3.3335 3.33337 9.89998 3.33337 18.0002C3.33337 26.1003 9.89987 32.6668 18 32.6668Z" fill="#F08A6E" fill-opacity="0.78"/>
<path d="M26.5378 10.8838H9.57086C8.45104 10.8838 7.53482 11.8 7.53482 12.9198C7.53482 14.0396 8.45104 14.9559 9.57086 14.9559H26.5378C27.6577 14.9559 28.5739 14.0396 28.5739 12.9198C28.5739 11.8 27.6577 10.8838 26.5378 10.8838Z" fill="#FCC17A"/>
<path d="M26.5379 16.4985H9.57089C8.45107 16.4985 7.53485 17.4148 7.53485 18.5346C7.53485 19.6544 8.45107 20.5706 9.57089 20.5706H26.5379C27.6577 20.5706 28.5739 19.6544 28.5739 18.5346C28.5739 17.4148 27.6577 16.4985 26.5379 16.4985Z" fill="#FCC17A"/>
<path d="M26.5379 21.8813H9.57089C8.45107 21.8813 7.53485 22.7976 7.53485 23.9174C7.53485 25.0372 8.45107 25.9534 9.57089 25.9534H26.5379C27.6577 25.9534 28.5739 25.0372 28.5739 23.9174C28.5739 22.7976 27.6577 21.8813 26.5379 21.8813Z" fill="#FCC17A"/>
</svg>
