<svg width="34" height="31" viewBox="0 0 34 31" fill="none" xmlns="http://www.w3.org/2000/svg">
<path d="M29.1531 30.0105V30.9998H33.7701V26.3828H32.7807C30.7804 26.3828 29.1531 28.0101 29.1531 30.0105Z" fill="white"/>
<path d="M27.1744 13.5213V12.532H6.59572V13.5213C6.59572 16.6126 4.08059 19.1277 0.989358 19.1277H0V24.4043H0.989358C4.08059 24.4043 6.59572 26.9194 6.59572 30.0107V31H27.1744V30.0107C27.1744 26.9194 29.6895 24.4043 32.7807 24.4043H33.7701V19.1277H32.7807C29.6895 19.1277 27.1744 16.6126 27.1744 13.5213ZM19.7972 25.3607C19.0573 26.4296 17.9958 27.0426 16.8851 27.0426C15.7743 27.0426 14.7128 26.4296 13.9729 25.3607C13.2989 24.387 12.9276 23.1104 12.9276 21.766C12.9276 20.4216 13.2989 19.145 13.9729 18.1713C14.7128 17.1024 15.7743 16.4894 16.8851 16.4894C17.9958 16.4894 19.0573 17.1024 19.7972 18.1713C20.4712 19.145 20.8425 20.4216 20.8425 21.766C20.8425 23.1104 20.4712 24.387 19.7972 25.3607Z" fill="white"/>
<path d="M16.885 18.468C15.8309 18.468 14.9062 20.009 14.9062 21.7659C14.9062 23.5228 15.8309 25.0637 16.885 25.0637C17.939 25.0637 18.8637 23.5228 18.8637 21.7659C18.8637 20.009 17.939 18.468 16.885 18.468Z" fill="white"/>
<path d="M4.61701 13.5213V12.532H0V17.149H0.989359C2.98972 17.149 4.61701 15.5217 4.61701 13.5213Z" fill="white"/>
<path d="M29.1531 13.5213C29.1531 15.5217 30.7804 17.149 32.7807 17.149H33.7701V12.532H29.1531V13.5213Z" fill="white"/>
<path d="M0.989359 26.3828H0V30.9998H4.61701V30.0105C4.61701 28.0101 2.98972 26.3828 0.989359 26.3828Z" fill="white"/>
<path d="M16.8851 8.57444C19.249 8.57444 21.1723 6.65112 21.1723 4.28722C21.1723 1.92332 19.249 0 16.8851 0C14.5212 0 12.5979 1.92332 12.5979 4.28722C12.5979 6.65112 14.5212 8.57444 16.8851 8.57444Z" fill="white"/>
<path d="M21.8318 10.2233C21.8318 9.63431 21.6898 9.07805 21.4397 8.58569C20.2965 9.79637 18.6774 10.5531 16.885 10.5531H21.8318V10.2233Z" fill="white"/>
<path d="M12.3304 8.58569C12.0802 9.07805 11.9382 9.63431 11.9382 10.2233V10.5531H16.885C15.0926 10.5531 13.4735 9.79637 12.3304 8.58569Z" fill="white"/>
<path d="M28.8234 8.57444C31.1873 8.57444 33.1106 6.65112 33.1106 4.28722C33.1106 1.92332 31.1873 0 28.8234 0C26.4595 0 24.5361 1.92332 24.5361 4.28722C24.5361 6.65112 26.4595 8.57444 28.8234 8.57444Z" fill="white"/>
<path d="M24.2686 8.58569C24.0184 9.07805 23.8765 9.63431 23.8765 10.2233V10.5531H28.8233C27.0308 10.5531 25.4118 9.79637 24.2686 8.58569Z" fill="white"/>
<path d="M33.3779 8.58569C32.2347 9.79637 30.6157 10.5531 28.8232 10.5531H33.77V10.2233C33.77 9.63431 33.6281 9.07805 33.3779 8.58569Z" fill="white"/>
<path d="M4.94689 8.57444C7.31079 8.57444 9.23411 6.65112 9.23411 4.28722C9.23411 1.92332 7.31079 0 4.94689 0C2.58299 0 0.659668 1.92332 0.659668 4.28722C0.659668 6.65112 2.58299 8.57444 4.94689 8.57444Z" fill="white"/>
<path d="M0.392136 8.58569C0.141963 9.07805 0 9.63431 0 10.2233V10.5531H4.94679C3.15435 10.5531 1.53531 9.79637 0.392136 8.58569Z" fill="white"/>
<path d="M9.89357 10.2233C9.89357 9.63431 9.75161 9.07805 9.50143 8.58569C8.35826 9.79637 6.73922 10.5531 4.94678 10.5531H9.89357V10.2233Z" fill="white"/>
</svg>