<svg width="36" height="36" viewBox="0 0 36 36" fill="none" xmlns="http://www.w3.org/2000/svg">
<path d="M18 36C27.9411 36 36 27.9411 36 18C36 8.05887 27.9411 0 18 0C8.05888 0 0 8.05887 0 18C0 27.9411 8.05888 36 18 36Z" fill="#FCC17A"/>
<path d="M18 32.6666C26.1002 32.6666 32.6667 26.1001 32.6667 17.9999C32.6667 9.89974 26.1002 3.33325 18 3.33325C9.89987 3.33325 3.33337 9.89974 3.33337 17.9999C3.33337 26.1001 9.89987 32.6666 18 32.6666Z" fill="#F08A6E"/>
<path d="M26.5378 10.8838H9.57083C8.45101 10.8838 7.53479 11.8 7.53479 12.9198C7.53479 14.0396 8.45101 14.9559 9.57083 14.9559H26.5378C27.6576 14.9559 28.5739 14.0396 28.5739 12.9198C28.5739 11.8 27.6576 10.8838 26.5378 10.8838Z" fill="#FCC17A"/>
<path d="M26.5378 16.4985H9.57083C8.45101 16.4985 7.53479 17.4148 7.53479 18.5346C7.53479 19.6544 8.45101 20.5706 9.57083 20.5706H26.5378C27.6576 20.5706 28.5739 19.6544 28.5739 18.5346C28.5739 17.4148 27.6576 16.4985 26.5378 16.4985Z" fill="#FCC17A"/>
<path d="M26.5378 21.8813H9.57083C8.45101 21.8813 7.53479 22.7976 7.53479 23.9174C7.53479 25.0372 8.45101 25.9534 9.57083 25.9534H26.5378C27.6576 25.9534 28.5739 25.0372 28.5739 23.9174C28.5739 22.7976 27.6576 21.8813 26.5378 21.8813Z" fill="#FCC17A"/>
</svg>
